#N canvas -7 0 1430 980 12;
#X obj 3 496 netsend -u -b;
#X msg 145 340 connect 127.0.0.1 8001;
#X msg 5 287 1;
#X obj 5 312 oscformat -f f play;
#X msg 145 290 1;
#X obj 145 312 oscformat -f f stop;
#X obj 340 419 oscformat -f f master volume;
#X obj 340 397 nbx 5 17 -1e+37 1e+37 0 0 empty empty empty 0 -10 0 12 #ffc7c6 #000000 #000000 0 256;
#X obj 7 35 comport;
#X msg 8 9 devices;
#X msg 67 9 close;
#X msg 114 9 baud 115200 \, open 4;
#X obj 7 59 pdchoco/slip_parse;
#X obj 7 84 oscparse;
#X obj 7 107 list trim;
#X obj 7 131 route bouton analog;
#X obj 7 157 tgl 19 0 empty empty empty 0 -10 0 12 #fcfcfc #000000 #000000 0 1;
#X obj 340 151 nbx 5 17 -1e+37 1e+37 0 0 empty empty empty 0 -10 0 12 #fcfcfc #000000 #000000 0 256;
#X obj 576 232 vsl 19 162 0 1 0 0 empty empty empty 0 -9 0 12 #ff0400 #000000 #000000 0 1;
#X obj 6 235 select 0 1;
#X obj 5 262 bng 19 250 50 0 empty empty empty 0 -10 0 12 #fcfcfc #000000 #000000;
#X obj 40 262 bng 19 250 50 0 empty empty empty 0 -10 0 12 #fcfcfc #000000 #000000;
#X obj 6 209 change;
#X obj 6 182 pdchoco/stream_flip_flop;
#X msg 339 442 127;
#X msg 373 442 0;
#X obj 338 465 oscformat -f i vkb_midi 0 note 60;
#X obj 339 366 oscformat -f i vkb_midi 0 cc 9;
#X obj 338 341 nbx 5 17 -1e+37 1e+37 0 0 empty empty empty 0 -10 0 12 #fcfcfc #000000 #000000 0 256;
#X obj 340 177 * 127;
#X obj 340 204 / 4095;
#X obj 340 234 pdchoco/stream_smooth 0.1 0.1;
#X connect 1 0 0 0;
#X connect 2 0 3 0;
#X connect 3 0 0 0;
#X connect 4 0 5 0;
#X connect 5 0 0 0;
#X connect 6 0 0 0;
#X connect 7 0 6 0;
#X connect 8 0 12 0;
#X connect 9 0 8 0;
#X connect 10 0 8 0;
#X connect 11 0 8 0;
#X connect 12 0 13 0;
#X connect 13 0 14 0;
#X connect 14 0 15 0;
#X connect 15 0 16 0;
#X connect 15 1 17 0;
#X connect 16 0 23 0;
#X connect 17 0 29 0;
#X connect 18 0 7 0;
#X connect 19 0 20 0;
#X connect 19 1 21 0;
#X connect 20 0 2 0;
#X connect 21 0 4 0;
#X connect 22 0 19 0;
#X connect 23 0 22 0;
#X connect 24 0 26 0;
#X connect 25 0 26 0;
#X connect 26 0 0 0;
#X connect 27 0 0 0;
#X connect 28 0 27 0;
#X connect 29 0 30 0;
#X connect 30 0 31 0;
#X connect 31 0 28 0;
#X coords 0 5880 2.5 5874 85 60 0;
